<svg viewBox="00 00 75 75" xmlns="http://www.w3.org/2000/svg"><path fill="#00933C" d="M2.87 37.45 37.45 2.87l34.58 34.58-34.58 34.58z"/><path d="M41.109 30.07c-.16-1.6-1.2-2.72-3.28-2.72-3.64 0-4.48 4.16-4.68 7.84l.08.08c.76-1.04 2.16-2.36 5.32-2.36 5.88 0 8.681 4.52 8.681 8.76 0 6.199-3.801 10.359-9.28 10.359-8.6 0-10.28-7.2-10.28-14.279 0-5.4.72-14.88 10.56-14.88 1.161 0 4.4.44 5.8 1.84 1.56 1.52 2.12 2.36 2.64 5.36h-5.561zm-3.56 7.32c-2.12 0-4.28 1.32-4.28 4.88 0 3.08 1.76 5.28 4.44 5.28 2.04 0 3.92-1.561 3.92-5.4-.001-3.6-2.32-4.76-4.08-4.76z" fill="#fff"/></svg>