<?xml version="1.0" encoding="utf-8"?>
<!-- Generator: Adobe Illustrator 28.1.0, SVG Export Plug-In . SVG Version: 6.00 Build 0)  -->
<svg width="20" height="20" version="1.1" id="Layer_1" xmlns="http://www.w3.org/2000/svg" xmlns:xlink="http://www.w3.org/1999/xlink" x="0px" y="0px"
	 viewBox="0 0 144 144" style="enable-background:new 0 0 144 144;" xml:space="preserve">
<style type="text/css">
	.st0{fill:#FFF200;}
</style>
<g>
	<path d="M72.5,135.6c-35,0-63.4-28.5-63.4-63.4S37.6,8.7,72.5,8.7S136,37.2,136,72.1S107.5,135.6,72.5,135.6z"/>
	<path class="st0" d="M71.5,137.1c-35.9,0-65-29.1-65-65s29.1-65,65-65s65,29.1,65,65S107.4,137.1,71.5,137.1z M111.3,41.8
		c5.5-5.5-2.6-13.7-8.1-8.2L80.5,56.4L30.2,44.2l-8.3,8.3l41.9,21.2L46.8,90.6l-12.9-1.4l-6.6,6.5l14.8,7.8l7.7,14.8l6.6-6.6
		l-1.6-13l16.9-16.9L93,123.6l8.3-8.3L88.7,64.5L111.3,41.8z"/>
</g>
</svg>
