<svg viewBox="0 0 90 90" xmlns="http://www.w3.org/2000/svg" xml:space="preserve" style="fill-rule:evenodd;clip-rule:evenodd;stroke-linejoin:round;stroke-miterlimit:1.41421"><circle cx="45" cy="45" r="45" style="fill:#fccc0a"/><path d="M48.597 61.406c.586-.152 1.335-.423 2.246-.814l-4.85-4.622 5.176-5.404 4.85 4.623c.76-1.563 1.291-2.93 1.595-4.102.477-1.758.716-3.808.716-6.152 0-5.382-1.101-9.543-3.304-12.484-2.203-2.94-5.42-4.41-9.652-4.41-3.971 0-7.14 1.41-9.505 4.231-2.365 2.821-3.548 7.042-3.548 12.663 0 6.575 1.693 11.285 5.078 14.127 2.192 1.845 4.818 2.767 7.878 2.767 1.15 0 2.257-.14 3.32-.423Zm18.197-6.445c-.847 2.756-2.095 5.046-3.744 6.868l5.534 5.176-5.24 5.469-5.795-5.469c-1.758 1.064-3.277 1.812-4.557 2.246-2.149.716-4.72 1.075-7.715 1.075-6.25 0-11.415-1.867-15.495-5.6-4.948-4.492-7.422-11.089-7.422-19.791 0-8.768 2.54-15.397 7.617-19.89 4.145-3.667 9.3-5.5 15.463-5.5 6.206 0 11.414 1.941 15.625 5.826 4.86 4.492 7.291 10.775 7.291 18.848 0 4.275-.52 7.856-1.562 10.742Z" style="fill:#000;fill-rule:nonzero"/></svg>