<svg width="18" height="20" viewBox="0 0 18 20" version="1.1" xmlns="http://www.w3.org/2000/svg"><g stroke="none" stroke-width="1" fill="none" fill-rule="evenodd"><circle cx="3" cy="15" r="1"/><path d="M15.37.833C13.822.267 11.7 0 9 0c-2.7 0-4.787.267-6.335.833C.432 1.633 0 2.833 0 3.7v11.567c0 1.266.72 2.333 2.16 2.566v1.1C2.16 19.5 2.7 20 3.312 20h1.152c.611 0 1.295-.467 1.295-1.067V18h6.48v.933c0 .567.684 1.067 1.295 1.067h1.152c.612 0 1.152-.467 1.152-1.067v-1.1c1.44-.233 2.16-1.3 2.16-2.566V3.7c.036-.9-.396-2.1-2.628-2.867zM5.04 2h7.955c.324 0 .575.367.575.667 0 .3-.251.666-.575.666H5.039c-.324 0-.575-.366-.575-.666 0-.3.287-.667.575-.667zM3.923 15.515c-.766 0-1.385-.573-1.385-1.282 0-.709.619-1.281 1.385-1.281.765 0 1.384.572 1.384 1.281 0 .682-.619 1.282-1.384 1.282zm10 0c-.766 0-1.385-.573-1.385-1.282 0-.709.619-1.281 1.385-1.281.765 0 1.384.572 1.384 1.281 0 .682-.619 1.282-1.384 1.282zM3.276 9.633v-4.3H14.794v4.334L3.276 9.633z" fill="#4A4A4A" fill-rule="nonzero"/></g></svg>