<svg viewBox="0 0 90 90" xmlns="http://www.w3.org/2000/svg" xml:space="preserve" style="fill-rule:evenodd;clip-rule:evenodd;stroke-linejoin:round;stroke-miterlimit:1.41421"><circle cx="45" cy="45" r="45" style="fill:#ff6219"/><path d="M35.739 29.342v31.316h9.245c4.73 0 8.03-2.333 9.896-7 1.02-2.56 1.53-5.609 1.53-9.146 0-4.883-.765-8.632-2.295-11.247-1.53-2.615-4.574-3.923-9.131-3.923h-9.245Zm18.36-7.291c3.363 1.107 6.087 3.136 8.17 6.087 1.67 2.387 2.81 4.97 3.418 7.747.608 2.778.911 5.426.911 7.943 0 6.38-1.28 11.784-3.84 16.211-3.473 5.968-8.833 8.952-16.082 8.952h-20.67V21.009h20.67c2.974.043 5.447.39 7.422 1.042Z" style="fill:#fff;fill-rule:nonzero"/></svg>