<svg viewBox="0 0 90 90" xmlns="http://www.w3.org/2000/svg" xml:space="preserve" style="fill-rule:evenodd;clip-rule:evenodd;stroke-linejoin:round;stroke-miterlimit:1.41421"><circle cx="45" cy="45" r="45" style="fill:#6dbe45"/><path d="M56.41 35.983c-.76-3.277-2.615-5.566-5.567-6.868-1.65-.717-3.483-1.075-5.501-1.075-3.863 0-7.037 1.46-9.522 4.379-2.484 2.919-3.727 7.308-3.727 13.167 0 5.903 1.346 10.08 4.037 12.532 2.69 2.453 5.75 3.679 9.18 3.679 3.363 0 6.119-.971 8.267-2.913 2.149-1.943 3.473-4.487 3.972-7.634h-11.1v-8.008h19.987v25.749h-6.641L58.785 63c-1.93 2.279-3.667 3.885-5.207 4.818-2.648 1.628-5.903 2.441-9.766 2.441-6.359 0-11.567-2.202-15.625-6.608-4.232-4.427-6.348-10.481-6.348-18.164 0-7.769 2.138-13.997 6.413-18.685 4.275-4.687 9.928-7.03 16.96-7.03 6.098 0 10.997 1.545 14.697 4.638 3.7 3.092 5.821 6.95 6.364 11.572H56.41Z" style="fill:#fff;fill-rule:nonzero"/></svg>